<svg xmlns="http://www.w3.org/2000/svg" width="800" height="800" viewBox="0 0 800 800" role="img" aria-labelledby="title desc">
  <title id="title">主 Agent 分工，统一验收</title>
  <desc id="desc">任务可以并行，标准必须收敛。</desc>
  <defs>
    <pattern id="paper" width="28" height="28" patternUnits="userSpaceOnUse"><path d="M28 0H0V28" fill="none" stroke="#D8D1C3" stroke-width="1" opacity="0.24"/><circle cx="8" cy="9" r="0.8" fill="#D8D1C3" opacity="0.22"/></pattern>
    <pattern id="halftone" width="8" height="8" patternUnits="userSpaceOnUse"><rect width="8" height="8" fill="#C9C6BF"/><circle cx="2" cy="2" r="1.15" fill="#AAA59C" opacity="0.85"/></pattern>
    <pattern id="halftone-dark" width="7" height="7" patternUnits="userSpaceOnUse"><circle cx="2" cy="2" r="1.3" fill="#171717" opacity="0.68"/></pattern>
    <marker id="arrow" markerWidth="10" markerHeight="10" refX="8" refY="5" orient="auto" markerUnits="strokeWidth"><path d="M0 0L10 5L0 10Z" fill="#171717"/></marker>
  </defs>
  <rect width="800" height="800" rx="30" fill="#F7F3EA"/><rect width="800" height="800" rx="30" fill="url(#paper)"/>
  <text x="48" y="72" font-family="'Noto Sans CJK SC','PingFang SC','Segoe UI',sans-serif" font-size="38" font-weight="780" fill="#171717">主 Agent 分工，统一验收</text>
  <text x="49" y="108" font-family="'Noto Sans CJK SC','PingFang SC','Segoe UI',sans-serif" font-size="19" font-weight="600" fill="#6D6962">任务可以并行，标准必须收敛。</text>
  <path d="M48 128 H752" stroke="#171717" stroke-width="1.5" opacity="0.2"/>
  <g transform="translate(70 166)" font-family="'Noto Sans CJK SC','PingFang SC','Segoe UI',sans-serif"><rect width="190" height="104" rx="18" fill="#FFFDF8" stroke="#171717" stroke-width="3"/><circle cx="34" cy="36" r="15" fill="#7FA7D8" stroke="#171717" stroke-width="2"/><text x="65" y="44" font-size="24" font-weight="760" fill="#171717">调研</text><path d="M25 70 H158 M25 88 H123" stroke="#D8D1C3" stroke-width="7" stroke-linecap="round"/></g>
  <g transform="translate(300 166)" font-family="'Noto Sans CJK SC','PingFang SC','Segoe UI',sans-serif"><rect width="190" height="104" rx="18" fill="#FFFDF8" stroke="#171717" stroke-width="3"/><circle cx="34" cy="36" r="15" fill="#9B83C7" stroke="#171717" stroke-width="2"/><text x="65" y="44" font-size="24" font-weight="760" fill="#171717">实现</text><path d="M25 70 H158 M25 88 H123" stroke="#D8D1C3" stroke-width="7" stroke-linecap="round"/></g>
  <g transform="translate(530 166)" font-family="'Noto Sans CJK SC','PingFang SC','Segoe UI',sans-serif"><rect width="190" height="104" rx="18" fill="#FFFDF8" stroke="#171717" stroke-width="3"/><circle cx="34" cy="36" r="15" fill="#78A67F" stroke="#171717" stroke-width="2"/><text x="65" y="44" font-size="24" font-weight="760" fill="#171717">复核</text><path d="M25 70 H158 M25 88 H123" stroke="#D8D1C3" stroke-width="7" stroke-linecap="round"/></g>
  <path d="M165 280 C180 330 278 334 330 375 M395 280 C397 326 397 340 397 374 M625 280 C610 330 520 334 465 375" fill="none" stroke="#171717" stroke-width="4" marker-end="url(#arrow)"/>
  <g transform="translate(262 370)" font-family="'Noto Sans CJK SC','PingFang SC','Segoe UI',sans-serif"><rect width="276" height="72" rx="22" fill="#F2C14E" stroke="#171717" stroke-width="3"/><text x="138" y="46" text-anchor="middle" font-size="28" font-weight="800" fill="#171717">主 Agent 统一验收</text></g>
  <g transform="translate(96 421) scale(0.62)">
    <ellipse cx="99" cy="72" rx="63" ry="61" fill="#FFFDF8" stroke="#171717" stroke-width="4"/><path d="M54 29 C70 6 115 2 143 25 M72 20 C79 8 86 4 96 1 M96 16 C104 4 113 2 123 3" fill="none" stroke="#171717" stroke-width="5" stroke-linecap="round"/>
    <rect x="43" y="51" width="49" height="37" rx="12" fill="none" stroke="#171717" stroke-width="4"/><rect x="106" y="51" width="49" height="37" rx="12" fill="none" stroke="#171717" stroke-width="4"/><path d="M92 67 H106 M42 61 L29 57 M156 61 L169 57" stroke="#171717" stroke-width="4" stroke-linecap="round"/><circle cx="69" cy="69" r="4.2" fill="#171717"/><circle cx="130" cy="69" r="4.2" fill="#171717"/><path d="M83 98 Q99 111 116 98" fill="none" stroke="#171717" stroke-width="3.2" stroke-linecap="round"/>
    <path d="M72 128 C35 138 22 174 24 225 C25 257 39 279 66 292 L132 292 C158 278 171 253 172 219 C173 174 158 140 126 129" fill="#FFFDF8" stroke="#171717" stroke-width="4"/><path d="M55 150 C64 174 78 184 99 184 C121 184 139 171 146 148" fill="none" stroke="#171717" stroke-width="3" opacity="0.72"/><path d="M45 183 C23 201 17 225 28 247 C41 266 59 267 78 246 M153 183 C174 200 179 225 169 247 C157 265 139 267 120 246" fill="none" stroke="#171717" stroke-width="5" stroke-linecap="round"/><path d="M66 286 C45 300 37 326 61 333 C81 337 93 317 99 298 M132 286 C154 300 162 326 137 333 C117 337 106 316 99 298" fill="url(#halftone-dark)" stroke="#171717" stroke-width="4"/>
  </g>
  <g transform="translate(208 574) scale(0.55)"><path d="M10 0 H220 Q230 0 228 12 L211 145 H25 L6 12 Q4 0 10 0 Z" fill="#B9B6AF" stroke="#171717" stroke-width="4"/><circle cx="117" cy="70" r="17" fill="#F7F3EA" stroke="#171717" stroke-width="3"/><path d="M98 72 L109 61 M109 61 L98 50 M136 50 L125 61 M125 61 L136 72" fill="none" stroke="#171717" stroke-width="3"/><path d="M0 145 H236 L217 164 H20 Z" fill="#8F8B84" stroke="#171717" stroke-width="4"/></g>
  <g transform="translate(510 462) scale(0.6)">
    <path d="M159 180 C205 164 208 231 172 244 C153 252 136 239 144 224" fill="none" stroke="#171717" stroke-width="24" stroke-linecap="round"/><path d="M159 180 C205 164 208 231 172 244 C153 252 136 239 144 224" fill="none" stroke="#AAA59C" stroke-width="16" stroke-linecap="round"/><path d="M180 193 L194 190 M181 209 L196 211 M170 227 L184 237" stroke="#171717" stroke-width="4"/>
    <ellipse cx="101" cy="177" rx="75" ry="96" fill="url(#halftone)" stroke="#171717" stroke-width="4"/><ellipse cx="101" cy="89" rx="67" ry="62" fill="url(#halftone)" stroke="#171717" stroke-width="4"/><path d="M47 52 L54 7 L84 38 Z M118 38 L150 7 L155 54 Z" fill="url(#halftone)" stroke="#171717" stroke-width="4"/><ellipse cx="75" cy="83" rx="15" ry="19" fill="#F2C14E" stroke="#171717" stroke-width="3"/><ellipse cx="127" cy="83" rx="15" ry="19" fill="#F2C14E" stroke="#171717" stroke-width="3"/><ellipse cx="78" cy="84" rx="4" ry="11" fill="#171717"/><ellipse cx="124" cy="84" rx="4" ry="11" fill="#171717"/><ellipse cx="101" cy="104" rx="35" ry="25" fill="#FFFDF8" stroke="#171717" stroke-width="2.5"/><path d="M95 98 L101 94 L107 98 L101 104 Z" fill="#171717"/><path d="M101 104 Q92 114 84 108 M101 104 Q110 114 118 108 M65 104 L20 95 M66 111 L18 114 M137 104 L182 95 M136 111 L184 115" fill="none" stroke="#171717" stroke-width="2.6"/><path d="M82 44 L86 59 M101 39 L101 58 M121 44 L116 59 M50 76 L68 69 M48 88 L67 84 M151 76 L134 69 M153 89 L135 84" stroke="#171717" stroke-width="4"/><path d="M48 148 Q65 157 77 150 M124 149 Q140 158 153 148 M51 176 Q70 184 79 174 M122 177 Q142 184 151 173" fill="none" stroke="#171717" stroke-width="4"/><path d="M75 185 L70 253 M127 185 L132 253" stroke="#171717" stroke-width="4"/><path d="M54 253 Q72 240 88 253 M114 253 Q131 240 148 253" fill="#FFFDF8" stroke="#171717" stroke-width="4"/><path d="M61 127 Q101 140 141 127" fill="none" stroke="#171717" stroke-width="5"/><circle cx="101" cy="132" r="18" fill="#E6AD2F" stroke="#171717" stroke-width="3"/>
  </g>
  <path d="M468 588 H525" stroke="#171717" stroke-width="4" marker-end="url(#arrow)"/>
  <g transform="translate(624 558)"><rect width="102" height="114" rx="14" fill="#FFFDF8" stroke="#171717" stroke-width="3"/><path d="M25 57 L43 74 L77 34" fill="none" stroke="#78A67F" stroke-width="8" stroke-linecap="round" stroke-linejoin="round"/></g>
</svg>
